<svg xmlns="http://www.w3.org/2000/svg" xmlns:xlink="http://www.w3.org/1999/xlink" version="1.1" width="1024" height="768" viewBox="0 0 1024 768" xml:space="preserve">
<desc>Created with Fabric.js 6.7.1</desc>
<defs>
</defs>
<g transform="matrix(1 0 0 1 601.4115 384.0002)">
<path style="stroke: none; stroke-width: 1; stroke-dasharray: none; stroke-linecap: butt; stroke-dashoffset: 0; stroke-linejoin: miter; stroke-miterlimit: 4; fill: rgb(255,255,255); fill-rule: nonzero; opacity: 1;" transform=" translate(-601.4115, -384.0002)" d="M 366.7129 419.0766 C 365.7532 419.0766 365.2734 418.7247 365.2734 418.0209 C 365.2734 417.4451 365.6892 417.0612 366.521 416.8693 L 368.7282 416.4854 C 370.0718 416.2295 370.9355 415.8776 371.3194 415.4297 C 371.7672 414.9819 371.9912 414.0862 371.9912 412.7426 L 371.9912 356.313 C 371.9912 354.9694 371.7672 354.0737 371.3194 353.6258 C 370.9355 353.178 370.0718 352.8261 368.7282 352.5702 L 366.521 352.1863 C 365.6892 351.9944 365.2734 351.6105 365.2734 351.0347 C 365.2734 350.3309 365.7532 349.979 366.7129 349.979 L 384.2752 349.979 C 385.2349 349.979 385.7147 350.3629 385.7147 351.1306 C 385.7147 351.7064 385.3628 352.0583 384.6591 352.1863 L 382.0679 352.5702 C 380.7243 352.7621 379.8286 353.114 379.3808 353.6258 C 378.9969 354.1377 378.805 355.0654 378.805 356.4089 L 378.805 382.3205 C 378.805 382.9603 378.9969 383.3442 379.3808 383.4721 C 379.7646 383.6001 380.1165 383.3762 380.4364 382.8004 L 396.1753 358.1364 C 398.2866 354.8734 398.0947 353.018 395.5995 352.5702 L 393.3922 352.1863 C 392.5605 351.9944 392.1446 351.5785 392.1446 350.9387 C 392.1446 350.2989 392.5925 349.979 393.4882 349.979 L 409.8029 349.979 C 410.6986 349.979 411.1464 350.3309 411.1464 351.0347 C 411.1464 351.7385 410.7306 352.1223 409.8989 352.1863 L 408.0754 352.3783 C 406.0921 352.5702 404.4606 353.146 403.181 354.1057 C 401.9015 355.0654 400.4619 356.7928 398.8624 359.288 L 388.018 376.2745 C 387.3782 377.3621 387.3462 378.4178 387.922 379.4415 L 405.9641 413.4144 C 406.4759 414.4381 406.9878 415.1739 407.4996 415.6217 C 408.0754 416.0696 408.7472 416.3575 409.515 416.4854 L 411.8182 416.8693 C 412.586 416.9333 412.9698 417.3172 412.9698 418.0209 C 412.9698 418.7247 412.522 419.0766 411.6263 419.0766 L 394.5438 419.0766 C 393.6481 419.0766 393.2003 418.7247 393.2003 418.0209 C 393.2003 417.3811 393.6161 416.9973 394.4479 416.8693 L 396.0793 416.6774 C 398.5745 416.3575 399.0863 414.79 397.6148 411.9749 L 383.7953 385.6794 C 383.5394 385.1676 383.2515 384.9117 382.9316 384.9117 C 382.6117 384.8477 382.2918 385.0716 381.9719 385.5835 L 379.9566 388.7505 C 379.5087 389.3902 379.1888 389.998 378.9969 390.5739 C 378.8689 391.1497 378.8049 391.8854 378.8049 392.7811 L 378.8049 412.6467 C 378.8049 413.9902 378.9969 414.9179 379.3807 415.4298 C 379.8286 415.9416 380.7243 416.2935 382.0679 416.4854 L 384.659 416.8693 C 385.3628 416.9973 385.7147 417.3492 385.7147 417.925 C 385.7147 418.6927 385.2349 419.0766 384.2752 419.0766 Z M 428.8047 419.9403 C 425.5418 419.9403 422.5987 418.8527 419.9756 416.6774 C 417.4164 414.4381 415.3691 411.3991 413.8336 407.5603 C 412.2981 403.7216 411.5303 399.435 411.5303 394.7005 C 411.5303 389.966 412.2981 385.7114 413.8336 381.9367 C 415.3691 378.1619 417.4484 375.1549 420.0715 372.9156 C 422.6947 370.6763 425.6057 369.5567 428.8047 369.5567 C 432.0676 369.5567 434.9787 370.6763 437.5379 372.9156 C 440.161 375.1549 442.2403 378.1619 443.7758 381.9367 C 445.3113 385.7114 446.0791 389.966 446.0791 394.7005 C 446.0791 399.435 445.3113 403.7216 443.7758 407.5603 C 442.3043 411.3991 440.257 414.4381 437.6338 416.6774 C 435.0107 418.8527 432.0676 419.9403 428.8047 419.9403 Z M 428.8047 417.5411 C 435.4585 417.5411 438.7855 409.9276 438.7855 394.7005 C 438.7855 379.5374 435.4585 371.9559 428.8047 371.9559 C 422.1509 371.9559 418.8239 379.5374 418.8239 394.7005 C 418.8239 409.9276 422.1509 417.5411 428.8047 417.5411 Z M 450.3977 419.0766 C 449.6299 419.0766 449.246 418.7247 449.246 418.0209 C 449.246 417.3811 449.5979 416.9972 450.3017 416.8693 L 451.6453 416.6773 C 452.9888 416.4854 453.9805 416.1015 454.6203 415.5257 C 455.2601 414.9499 455.58 413.9902 455.58 412.6466 L 455.58 357.6565 C 455.58 356.5049 455.3881 355.7052 455.0042 355.2573 C 454.6843 354.8094 454.0765 354.5535 453.1808 354.4896 L 450.9735 354.2016 C 450.2697 354.0737 449.9178 353.6898 449.9178 353.05 C 449.9178 352.4102 450.2697 352.0263 450.9735 351.8984 C 452.7649 351.5145 454.3004 351.0666 455.58 350.5548 C 456.8596 350.043 457.9152 349.5311 458.747 349.0193 C 459.7706 348.3795 460.5384 348.0596 461.0502 348.0596 C 461.754 348.0596 462.1059 348.5715 462.1059 349.5951 L 462.1059 412.6466 C 462.1059 413.9902 462.2978 414.9499 462.6817 415.5257 C 463.1295 416.0375 464.0252 416.3894 465.3688 416.5813 L 467.5761 416.8693 C 468.2799 416.9972 468.6317 417.3811 468.6317 418.0209 C 468.6317 418.7247 468.2479 419.0765 467.4801 419.0765 Z M 471.5108 419.0766 C 470.743 419.0766 470.3591 418.7247 470.3591 418.0209 C 470.3591 417.3811 470.711 416.9972 471.4148 416.8693 L 472.7584 416.6773 C 474.1019 416.4854 475.0936 416.1015 475.7334 415.5257 C 476.3732 414.9499 476.6931 413.9902 476.6931 412.6466 L 476.6931 357.6565 C 476.6931 356.5049 476.5012 355.7052 476.1173 355.2573 C 475.7974 354.8094 475.1896 354.5535 474.2939 354.4896 L 472.0866 354.2016 C 471.3828 354.0737 471.0309 353.6898 471.0309 353.05 C 471.0309 352.4102 471.3828 352.0263 472.0866 351.8984 C 473.878 351.5145 475.4135 351.0666 476.6931 350.5548 C 477.9727 350.043 479.0283 349.5311 479.8601 349.0193 C 480.8837 348.3795 481.6515 348.0596 482.1633 348.0596 C 482.8671 348.0596 483.219 348.5715 483.219 349.5951 L 483.219 412.6466 C 483.219 413.9902 483.4109 414.9499 483.7948 415.5257 C 484.2426 416.0375 485.1383 416.3894 486.4819 416.5813 L 488.6892 416.8693 C 489.393 416.9972 489.7448 417.3811 489.7448 418.0209 C 489.7448 418.7247 489.361 419.0765 488.5932 419.0765 Z M 509.1305 419.9403 C 506.0595 419.9403 503.3084 418.9166 500.8772 416.8693 C 498.446 414.822 496.4946 411.9429 495.0231 408.2321 C 493.6156 404.4574 492.9118 400.1068 492.9118 395.1804 C 492.9118 390.126 493.6476 385.6795 495.1191 381.8407 C 496.5906 378.002 498.6059 374.9949 501.1651 372.8196 C 503.7243 370.6443 506.5713 369.5567 509.7063 369.5567 C 513.4811 369.5567 516.5201 371.1242 518.8234 374.2592 C 519.8125 375.5423 520.5949 377.1662 521.1708 379.1308 C 521.3543 382.3354 521.4517 384.0279 521.4517 384.0279 C 521.4517 384.0279 521.3168 386.3713 521.0655 390.7671 C 521.0242 391.2557 521.0061 391.7727 520.9803 392.3142 C 520.6904 392.4336 520.3553 392.4932 519.975 392.4932 L 501.7409 392.4932 C 500.4613 392.4932 499.8215 393.229 499.8215 394.7005 C 499.8215 401.4823 500.8132 406.5687 502.7966 409.9596 C 504.7799 413.3505 507.3071 415.0459 510.3781 415.0459 C 512.8093 415.0459 514.7927 414.1822 516.3282 412.4548 C 516.5725 412.1798 516.8096 411.8749 517.0394 411.54 C 516.2986 413.8227 515.4438 416.2228 514.4344 418.6981 C 512.8439 419.5262 511.0759 419.9403 509.1305 419.9403 Z M 522.3742 389.3263 C 522.3742 390.8671 521.9482 391.8458 521.0963 392.2621 C 521.1136 391.7409 521.125 391.2426 521.1581 390.7697 C 521.3485 386.3739 521.4517 384.0279 521.4517 384.0279 C 521.4517 384.0279 521.3815 382.4317 521.2486 379.4027 C 521.999 382.0919 522.3742 385.3998 522.3742 389.3263 Z M 520.071 403.7216 C 520.2629 403.0178 520.6788 402.6659 521.3185 402.6659 C 522.0863 402.6659 522.3742 403.3057 522.1823 404.5853 C 521.1586 410.2794 519.5271 414.2782 517.2879 416.5814 C 516.7439 417.1254 516.1715 417.6033 515.5709 418.0152 C 516.5908 415.0778 517.4195 412.2715 518.1127 409.6473 C 518.8621 408.0695 519.5149 406.0942 520.071 403.7216 Z M 501.453 390.094 L 511.1459 390.094 C 514.2169 390.094 515.7524 388.4945 515.7524 385.2956 C 515.7524 381.1369 515.2405 377.874 514.2169 375.5068 C 513.1932 373.1395 511.6577 371.9559 509.6104 371.9559 C 507.1152 371.9559 505.0039 373.3954 503.2764 376.2745 C 501.613 379.1536 500.5253 383.2482 500.0135 388.5585 C 499.8855 389.5822 500.3654 390.094 501.453 390.094 Z M 527.3646 419.0766 C 526.5969 419.0766 526.213 418.7247 526.213 418.0209 C 526.213 417.3811 526.5649 416.9972 527.2687 416.8693 L 528.6122 416.6773 C 529.9558 416.4854 530.8195 416.1015 531.2034 415.5257 C 531.6512 414.9499 531.8752 413.9902 531.8752 412.6466 L 531.8752 357.6565 C 531.8752 356.5049 531.6832 355.7371 531.2994 355.3533 C 530.9795 354.9054 530.3717 354.6175 529.4759 354.4896 L 527.4606 354.2016 C 526.7568 354.0737 526.4049 353.6898 526.4049 353.05 C 526.4049 352.4102 526.7568 352.0263 527.4606 351.8984 C 529.252 351.5145 530.7555 351.0666 531.9711 350.5548 C 533.1867 350.043 534.2104 349.5311 535.0421 349.0193 C 536.0658 348.3795 536.8336 348.0596 537.3454 348.0596 C 538.0492 348.0596 538.401 348.5715 538.401 349.5951 L 538.401 389.8061 C 538.401 390.4458 538.657 390.8617 539.1688 391.0536 C 539.7446 391.1816 540.2884 390.9577 540.8003 390.3819 L 552.0286 378.2898 C 553.3722 376.8183 553.916 375.6027 553.6601 374.643 C 553.4681 373.6193 552.7324 372.9795 551.4528 372.7236 L 549.2455 372.3397 C 548.4138 372.1478 547.9979 371.7319 547.9979 371.0921 C 547.9979 370.4523 548.4458 370.1324 549.3415 370.1324 L 565.8481 370.1324 C 566.4058 370.1324 566.7899 370.2689 567.0004 370.5417 C 567.0865 370.4671 567.1823 370.3947 567.2877 370.3244 C 569.399 368.8529 571.0945 367.2854 572.374 365.6219 C 573.6536 363.8945 574.7733 361.5593 575.733 358.6162 C 576.1808 357.2727 576.7246 356.6009 577.3644 356.6009 C 578.0682 356.6009 578.4201 357.1127 578.4201 358.1364 L 578.4201 368.7889 C 578.4201 369.6846 578.8679 370.1325 579.7636 370.1325 L 586.0016 370.1325 C 587.0253 370.1325 587.5371 370.5803 587.5371 371.4761 C 587.5371 372.3718 587.0253 372.8196 586.0016 372.8196 L 579.7636 372.8196 C 578.8679 372.8196 578.4201 373.2675 578.4201 374.1632 L 578.4201 409.9595 C 578.4201 411.3671 578.644 412.4867 579.0919 413.3184 C 579.5397 414.0862 580.3714 414.4701 581.5871 414.4701 C 582.9306 414.4701 584.0183 413.7983 584.85 412.4547 C 585.7457 411.1112 586.3215 408.9359 586.5774 405.9289 C 586.7054 405.0331 587.1213 404.5853 587.825 404.5853 C 588.5928 404.5853 588.9767 405.0651 588.9767 406.0248 C 588.7847 410.9512 587.7611 414.5021 585.9057 416.6774 C 584.1142 418.8527 582.0029 419.9403 579.5717 419.9403 C 577.3324 419.9403 575.477 419.1726 574.0055 417.6371 C 572.598 416.0376 571.8942 413.4464 571.8942 409.8636 L 571.8942 373.9713 C 571.8942 373.2035 571.5103 372.8196 570.7426 372.8196 L 567.9595 372.8196 C 567.2165 372.8196 566.7432 372.6174 566.5394 372.213 C 566.3729 372.2798 566.1744 372.322 565.9441 372.3397 L 565.0804 372.4357 C 563.6089 372.5637 562.1373 373.1395 560.6658 374.1632 C 559.1943 375.1228 557.4349 376.6583 555.3875 378.7697 L 549.4375 385.1036 C 548.0939 386.5751 547.774 388.0146 548.4778 389.4222 L 560.5699 412.6466 C 561.2736 413.9262 562.0414 414.8539 562.8731 415.4297 C 563.7048 416.0056 564.7285 416.4214 565.9441 416.6773 L 566.9038 416.8693 C 567.6715 417.0612 568.0554 417.4451 568.0554 418.0209 C 568.0554 418.7247 567.6076 419.0766 566.7119 419.0766 L 550.0133 419.0766 C 549.1176 419.0766 548.6697 418.7247 548.6697 418.0209 C 548.6697 417.3811 549.0856 416.9972 549.9173 416.8693 L 551.5488 416.6773 C 553.98 416.3574 554.4918 414.7899 553.0843 411.9749 L 543.9673 394.2206 C 543.6474 393.5808 543.1675 393.229 542.5277 393.165 C 541.9519 393.101 541.4081 393.3249 540.8963 393.8368 L 539.8406 394.8924 C 539.2648 395.4682 538.8809 396.044 538.689 396.6199 C 538.497 397.1957 538.4011 397.8355 538.4011 398.5392 L 538.4011 412.6466 C 538.4011 413.9902 538.593 414.9499 538.9769 415.5257 C 539.4247 416.1015 540.3204 416.4534 541.664 416.5814 L 544.2552 416.8693 C 544.9589 416.9972 545.3108 417.3811 545.3108 418.0209 C 545.3108 418.7247 544.9269 419.0766 544.1592 419.0766 Z M 593.1992 419.0766 C 592.2395 419.0766 591.7597 418.7247 591.7597 418.0209 C 591.7597 417.4451 592.1755 417.0612 593.0073 416.8693 L 594.1589 416.6774 C 595.7584 416.4214 596.782 416.0376 597.2299 415.5257 C 597.6777 414.9499 597.9017 413.9902 597.9017 412.6467 L 597.9017 380.4012 C 597.9017 379.2495 597.7097 378.4818 597.3259 378.0979 C 597.006 377.6501 596.3982 377.3621 595.5025 377.2342 L 593.4871 376.9463 C 592.6554 376.8823 592.2395 376.5304 592.2395 375.8906 C 592.2395 375.3788 592.7514 375.0269 593.775 374.835 C 595.7584 374.5151 597.3579 374.0032 598.5735 373.2995 C 599.7891 372.5957 600.9727 371.732 602.1243 370.7083 C 602.7001 370.1325 603.18 369.8446 603.5638 369.8446 C 604.1397 369.8446 604.4276 370.2285 604.4276 370.9962 L 604.4276 412.6467 C 604.4276 413.9902 604.6195 414.9499 605.0034 415.5257 C 605.3873 416.1015 606.123 416.4534 607.2107 416.5814 L 609.6099 416.8693 C 610.3136 416.9973 610.6655 417.3491 610.6655 417.925 C 610.6655 418.6927 610.1857 419.0766 609.226 419.0766 Z M 601.2606 361.0155 C 599.917 361.0155 598.7654 360.5356 597.8057 359.5759 C 596.91 358.6162 596.4621 357.4006 596.4621 355.9291 C 596.4621 354.4576 596.91 353.274 597.8057 352.3783 C 598.7654 351.4186 599.917 350.9387 601.2606 350.9387 C 602.6041 350.9387 603.7238 351.4186 604.6195 352.3783 C 605.5152 353.274 605.9631 354.4576 605.9631 355.9291 C 605.9631 357.4006 605.5152 358.6163 604.6195 359.5759 C 603.7238 360.5356 602.6042 361.0155 601.2606 361.0155 Z M 630.3392 419.9403 C 629.7634 419.9403 629.3475 419.5884 629.0916 418.8846 L 616.3277 376.5624 C 615.8799 375.0269 615.432 374.0352 614.9842 373.5874 C 614.6003 373.1395 613.9605 372.8196 613.0648 372.6277 L 611.6253 372.3398 C 610.7935 372.1478 610.3777 371.732 610.3777 371.0922 C 610.3777 370.4524 610.8255 370.1325 611.7212 370.1325 L 627.5561 370.1325 C 628.4518 370.1325 628.8997 370.4524 628.8997 371.0922 C 628.8997 371.7959 628.4838 372.2118 627.6521 372.3398 L 626.1166 372.5317 C 624.5811 372.7236 623.6214 373.1075 623.2375 373.6833 C 622.8536 374.1952 622.8536 375.1549 623.2375 376.5624 L 631.2029 404.2974 C 631.3949 405.0011 631.7147 405.353 632.1626 405.353 C 632.6105 405.353 632.9304 405.0011 633.1223 404.2974 L 640.8958 378.2898 C 641.4076 376.5624 641.5356 375.2828 641.2796 374.4511 C 641.0877 373.5554 640.192 372.9796 638.5925 372.7236 L 636.5772 372.3398 C 635.7454 372.1478 635.3296 371.732 635.3296 371.0922 C 635.3296 370.4524 635.7774 370.1325 636.6731 370.1325 L 648.8612 370.1325 C 649.7569 370.1325 650.2047 370.4844 650.2047 371.1881 C 650.2047 371.8279 649.8209 372.2758 649.0531 372.5317 L 648.1894 372.8196 C 647.2297 373.1395 646.398 373.7153 645.6942 374.5471 C 645.0544 375.3788 644.4146 376.8183 643.7748 378.8657 L 631.5868 418.8846 C 631.3309 419.5884 630.915 419.9403 630.3392 419.9403 Z M 659.8016 419.9403 C 657.1144 419.9403 654.9072 419.1086 653.1797 417.4451 C 651.4523 415.7177 650.5886 413.4464 650.5886 410.6313 C 650.5886 407.8802 651.4523 405.2891 653.1797 402.8579 C 654.9072 400.3627 657.2744 398.1234 660.2814 396.1401 C 663.2884 394.1567 666.7113 392.5572 670.5501 391.3416 C 671.3818 391.0857 671.7977 390.5419 671.7977 389.7101 L 671.7977 380.977 C 671.7977 377.906 671.3178 375.7307 670.3581 374.4511 C 669.3984 373.1075 668.0869 372.4358 666.4234 372.4358 C 664.8239 372.4358 663.3524 373.1715 662.0089 374.643 C 660.7293 376.0506 659.8016 378.4498 659.2258 381.8407 C 658.9059 383.888 658.2021 385.3916 657.1144 386.3512 C 656.0908 387.2469 655.0351 387.6948 653.9475 387.6948 C 652.1561 387.6948 651.2603 386.7991 651.2603 385.0077 C 651.2603 383.1523 651.7722 381.3289 652.7958 379.5374 C 653.8835 377.682 655.291 376.0186 657.0185 374.5471 C 658.7459 373.0116 660.6333 371.796 662.6806 370.9003 C 664.728 370.0045 666.7753 369.5567 668.8226 369.5567 C 675.1566 369.5567 678.3235 373.2355 678.3235 380.5931 L 678.3235 409.9596 C 678.3235 412.6467 678.9953 413.9902 680.3389 413.9902 C 681.1706 413.9902 681.9384 413.4464 682.6421 412.3588 C 683.3459 411.2071 683.6978 409.2878 683.6978 406.6006 C 683.6978 405.577 684.1137 405.0651 684.9454 405.0651 C 685.7131 405.0651 686.097 405.609 686.097 406.6966 C 686.097 411.3671 685.2653 414.758 683.6018 416.8693 C 682.0023 418.9166 680.1789 419.9403 678.1316 419.9403 C 676.5961 419.9403 675.3805 419.3325 674.4848 418.1169 C 673.5891 416.8373 672.9813 415.3338 672.6614 413.6064 C 672.5974 412.9666 672.3095 412.6467 671.7977 412.6467 C 671.3498 412.5827 670.902 412.8706 670.4541 413.5104 C 668.9186 415.6217 667.3511 417.2212 665.7516 418.3088 C 664.1522 419.3965 662.1688 419.9403 659.8016 419.9403 Z M 662.3927 415.5258 C 664.0562 415.5258 665.5917 414.9499 666.9992 413.7983 C 668.4068 412.5827 669.5584 410.9832 670.4541 408.9999 C 671.3498 407.0165 671.7977 404.7772 671.7977 402.282 L 671.7977 395.2763 C 671.7977 394.0607 671.1259 393.7088 669.7823 394.2207 C 665.8796 395.6282 662.8406 397.5796 660.6653 400.0748 C 658.554 402.506 657.4983 405.449 657.4983 408.9039 C 657.4983 413.3185 659.1298 415.5258 662.3927 415.5258 Z M 703.4674 419.9403 C 702.8916 419.9403 702.4757 419.5884 702.2198 418.8846 L 689.4559 376.5624 C 689.0081 375.0269 688.5602 374.0352 688.1124 373.5874 C 687.7285 373.1395 687.0887 372.8196 686.193 372.6277 L 684.7535 372.3398 C 683.9217 372.1478 683.5059 371.732 683.5059 371.0922 C 683.5059 370.4524 683.9537 370.1325 684.8494 370.1325 L 700.6843 370.1325 C 701.58 370.1325 702.0279 370.4524 702.0279 371.0922 C 702.0279 371.7959 701.612 372.2118 700.7803 372.3398 L 699.2448 372.5317 C 697.7093 372.7236 696.7496 373.1075 696.3657 373.6833 C 695.9818 374.1952 695.9818 375.1549 696.3657 376.5624 L 704.3311 404.2974 C 704.5231 405.0011 704.8429 405.353 705.2908 405.353 C 705.7387 405.353 706.0586 405.0011 706.2505 404.2974 L 714.024 378.2898 C 714.5358 376.5624 714.6638 375.2828 714.4078 374.4511 C 714.2159 373.5554 713.3202 372.9796 711.7207 372.7236 L 709.7054 372.3398 C 708.8736 372.1478 708.4578 371.732 708.4578 371.0922 C 708.4578 370.4524 708.9056 370.1325 709.8013 370.1325 L 721.9894 370.1325 C 722.8851 370.1325 723.3329 370.4844 723.3329 371.1881 C 723.3329 371.8279 722.9491 372.2758 722.1813 372.5317 L 721.3176 372.8196 C 720.3579 373.1395 719.5262 373.7153 718.8224 374.5471 C 718.1826 375.3788 717.5428 376.8183 716.903 378.8657 L 704.715 418.8846 C 704.4591 419.5884 704.0432 419.9403 703.4674 419.9403 Z M 736.6726 419.9403 C 734.4333 419.9403 732.5779 419.1726 731.1064 417.637 C 729.6989 416.0376 728.9951 413.4464 728.9951 409.8636 L 728.9951 373.9712 C 728.9951 373.2035 728.6112 372.8196 727.8435 372.8196 L 725.0604 372.8196 C 724.0367 372.8196 723.5249 372.4357 723.5249 371.668 C 723.5249 371.1562 723.8128 370.7083 724.3886 370.3244 C 726.4999 368.8529 728.1953 367.2854 729.4749 365.622 C 730.7545 363.8945 731.8742 361.5593 732.8338 358.6162 C 733.2817 357.2727 733.8255 356.6009 734.4653 356.6009 C 735.1691 356.6009 735.521 357.1127 735.521 358.1364 L 735.521 368.7889 C 735.521 369.6846 735.9688 370.1325 736.8645 370.1325 L 743.1025 370.1325 C 744.1262 370.1325 744.638 370.5804 744.638 371.4761 C 744.638 372.3718 744.1262 372.8196 743.1025 372.8196 L 736.8645 372.8196 C 735.9688 372.8196 735.521 373.2675 735.521 374.1632 L 735.521 409.9595 C 735.521 411.3671 735.7449 412.4867 736.1928 413.3185 C 736.6406 414.0862 737.4723 414.4701 738.6879 414.4701 C 740.0315 414.4701 741.1192 413.7983 741.9509 412.4547 C 742.8466 411.1112 743.4224 408.9359 743.6783 405.9289 C 743.8063 405.0332 744.2221 404.5853 744.9259 404.5853 C 745.6937 404.5853 746.0775 405.0651 746.0775 406.0248 C 745.8856 410.9512 744.8619 414.5021 743.0065 416.6774 C 741.2151 418.8527 739.1038 419.9403 736.6726 419.9403 Z M 758.9374 419.9403 C 756.2502 419.9403 754.043 419.1086 752.3155 417.4451 C 750.5881 415.7177 749.7244 413.4464 749.7244 410.6313 C 749.7244 407.8802 750.5881 405.2891 752.3155 402.8579 C 754.043 400.3627 756.4102 398.1234 759.4172 396.1401 C 762.4242 394.1567 765.8471 392.5572 769.6859 391.3416 C 770.5176 391.0857 770.9335 390.5419 770.9335 389.7101 L 770.9335 380.977 C 770.9335 377.906 770.4536 375.7307 769.4939 374.4511 C 768.5342 373.1075 767.2227 372.4358 765.5592 372.4358 C 763.9597 372.4358 762.4882 373.1715 761.1447 374.643 C 759.8651 376.0506 758.9374 378.4498 758.3616 381.8407 C 758.0417 383.888 757.3379 385.3916 756.2502 386.3512 C 755.2266 387.2469 754.1709 387.6948 753.0833 387.6948 C 751.2919 387.6948 750.3961 386.7991 750.3961 385.0077 C 750.3961 383.1523 750.908 381.3289 751.9316 379.5374 C 753.0193 377.682 754.4268 376.0186 756.1543 374.5471 C 757.8817 373.0116 759.7691 371.796 761.8164 370.9003 C 763.8638 370.0045 765.9111 369.5567 767.9584 369.5567 C 774.2924 369.5567 777.4593 373.2355 777.4593 380.5931 L 777.4593 409.9596 C 777.4593 412.6467 778.1311 413.9902 779.4747 413.9902 C 780.3064 413.9902 781.0742 413.4464 781.7779 412.3588 C 782.4817 411.2071 782.8336 409.2878 782.8336 406.6006 C 782.8336 405.577 783.2495 405.0651 784.0812 405.0651 C 784.8489 405.0651 785.2328 405.609 785.2328 406.6966 C 785.2328 411.3671 784.4011 414.758 782.7376 416.8693 C 781.1381 418.9166 779.3147 419.9403 777.2674 419.9403 C 775.7319 419.9403 774.5163 419.3325 773.6206 418.1169 C 772.7249 416.8373 772.1171 415.3338 771.7972 413.6064 C 771.7332 412.9666 771.4453 412.6467 770.9335 412.6467 C 770.4856 412.5827 770.0378 412.8706 769.5899 413.5104 C 768.0544 415.6217 766.4869 417.2212 764.8874 418.3088 C 763.288 419.3965 761.3046 419.9403 758.9374 419.9403 Z M 761.5285 415.5258 C 763.192 415.5258 764.7275 414.9499 766.135 413.7983 C 767.5426 412.5827 768.6942 410.9832 769.5899 408.9999 C 770.4856 407.0165 770.9335 404.7772 770.9335 402.282 L 770.9335 395.2763 C 770.9335 394.0607 770.2617 393.7088 768.9181 394.2207 C 765.0154 395.6282 761.9764 397.5796 759.8011 400.0748 C 757.6898 402.506 756.6341 405.449 756.6341 408.9039 C 756.6341 413.3185 758.2656 415.5258 761.5285 415.5258 Z M 787.632 419.0766 C 786.8642 419.0766 786.4804 418.7247 786.4804 418.0209 C 786.4804 417.3811 786.8322 416.9972 787.536 416.8693 L 788.8796 416.6773 C 790.2231 416.4854 791.2148 416.1015 791.8546 415.5257 C 792.4944 414.9499 792.8143 413.9902 792.8143 412.6466 L 792.8143 357.6565 C 792.8143 356.5049 792.6223 355.7052 792.2385 355.2573 C 791.9186 354.8094 791.3108 354.5535 790.4151 354.4896 L 788.2078 354.2016 C 787.504 354.0737 787.1521 353.6898 787.1521 353.05 C 787.1521 352.4102 787.504 352.0263 788.2078 351.8984 C 789.9992 351.5145 791.5347 351.0666 792.8143 350.5548 C 794.0939 350.043 795.1495 349.5311 795.9813 349.0193 C 797.0049 348.3795 797.7727 348.0596 798.2845 348.0596 C 798.9883 348.0596 799.3402 348.5715 799.3402 349.5951 L 799.3402 412.6466 C 799.3402 413.9902 799.5321 414.9499 799.916 415.5257 C 800.3638 416.0375 801.2595 416.3894 802.6031 416.5813 L 804.8104 416.8693 C 805.5142 416.9972 805.8661 417.3811 805.8661 418.0209 C 805.8661 418.7247 805.4822 419.0765 804.7144 419.0765 Z M 817.0945 419.9404 C 815.6869 419.9404 814.4713 419.4925 813.4477 418.5968 C 812.488 417.6371 812.0081 416.3895 812.0081 414.854 C 812.0081 413.3825 812.488 412.1989 813.4477 411.3032 C 814.4713 410.3435 815.6869 409.8636 817.0945 409.8636 C 818.3741 409.8636 819.5257 410.3435 820.5494 411.3032 C 821.573 412.1989 822.0849 413.3825 822.0849 414.854 C 822.0849 416.3895 821.573 417.6371 820.5494 418.5968 C 819.5257 419.4925 818.3741 419.9404 817.0945 419.9404 Z M 838.7834 419.9403 C 836.0962 419.9403 833.889 419.1086 832.1615 417.4451 C 830.4341 415.7177 829.5704 413.4464 829.5704 410.6313 C 829.5704 407.8802 830.4341 405.2891 832.1615 402.8579 C 833.889 400.3627 836.2562 398.1234 839.2632 396.1401 C 842.2702 394.1567 845.6931 392.5572 849.5319 391.3416 C 850.3636 391.0857 850.7795 390.5419 850.7795 389.7101 L 850.7795 380.977 C 850.7795 377.906 850.2996 375.7307 849.3399 374.4511 C 848.3802 373.1075 847.0687 372.4358 845.4052 372.4358 C 843.8057 372.4358 842.3342 373.1715 840.9907 374.643 C 839.7111 376.0506 838.7834 378.4498 838.2076 381.8407 C 837.8877 383.888 837.1839 385.3916 836.0962 386.3512 C 835.0726 387.2469 834.0169 387.6948 832.9293 387.6948 C 831.1379 387.6948 830.2421 386.7991 830.2421 385.0077 C 830.2421 383.1523 830.754 381.3289 831.7776 379.5374 C 832.8653 377.682 834.2728 376.0186 836.0003 374.5471 C 837.7277 373.0116 839.6151 371.796 841.6624 370.9003 C 843.7098 370.0045 845.7571 369.5567 847.8044 369.5567 C 854.1384 369.5567 857.3053 373.2355 857.3053 380.5931 L 857.3053 409.9596 C 857.3053 412.6467 857.9771 413.9902 859.3207 413.9902 C 860.1524 413.9902 860.9202 413.4464 861.6239 412.3588 C 862.3277 411.2071 862.6796 409.2878 862.6796 406.6006 C 862.6796 405.577 863.0955 405.0651 863.9272 405.0651 C 864.6949 405.0651 865.0788 405.609 865.0788 406.6966 C 865.0788 411.3671 864.2471 414.758 862.5836 416.8693 C 860.9841 418.9166 859.1607 419.9403 857.1134 419.9403 C 855.5779 419.9403 854.3623 419.3325 853.4666 418.1169 C 852.5709 416.8373 851.9631 415.3338 851.6432 413.6064 C 851.5792 412.9666 851.2913 412.6467 850.7795 412.6467 C 850.3316 412.5827 849.8838 412.8706 849.4359 413.5104 C 847.9004 415.6217 846.3329 417.2212 844.7334 418.3088 C 843.134 419.3965 841.1506 419.9403 838.7834 419.9403 Z M 841.3745 415.5258 C 843.038 415.5258 844.5735 414.9499 845.981 413.7983 C 847.3886 412.5827 848.5402 410.9832 849.4359 408.9999 C 850.3316 407.0165 850.7795 404.7772 850.7795 402.282 L 850.7795 395.2763 C 850.7795 394.0607 850.1077 393.7088 848.7641 394.2207 C 844.8614 395.6282 841.8224 397.5796 839.6471 400.0748 C 837.5358 402.506 836.4801 405.449 836.4801 408.9039 C 836.4801 413.3185 838.1116 415.5258 841.3745 415.5258 Z M 868.4377 419.0766 C 867.478 419.0766 866.9982 418.7247 866.9982 418.0209 C 866.9982 417.4451 867.414 417.0612 868.2458 416.8693 L 869.3974 416.6774 C 870.9969 416.4214 872.0205 416.0376 872.4684 415.5257 C 872.9162 414.9499 873.1402 413.9902 873.1402 412.6467 L 873.1402 380.4012 C 873.1402 379.2495 872.9482 378.4818 872.5644 378.0979 C 872.2445 377.6501 871.6367 377.3621 870.741 377.2342 L 868.7256 376.9463 C 867.8939 376.8823 867.478 376.5304 867.478 375.8906 C 867.478 375.3788 867.9899 375.0269 869.0135 374.835 C 870.9969 374.5151 872.5964 374.0032 873.812 373.2995 C 875.0276 372.5957 876.2112 371.732 877.3628 370.7083 C 877.9386 370.1325 878.4185 369.8446 878.8023 369.8446 C 879.3782 369.8446 879.6661 370.2285 879.6661 370.9962 L 879.6661 412.6467 C 879.6661 413.9902 879.858 414.9499 880.2419 415.5257 C 880.6258 416.1015 881.3615 416.4534 882.4492 416.5814 L 884.8484 416.8693 C 885.5521 416.9973 885.904 417.3491 885.904 417.925 C 885.904 418.6927 885.4242 419.0766 884.4645 419.0766 Z M 876.4991 361.0155 C 875.1555 361.0155 874.0039 360.5356 873.0442 359.5759 C 872.1485 358.6162 871.7006 357.4006 871.7006 355.9291 C 871.7006 354.4576 872.1485 353.274 873.0442 352.3783 C 874.0039 351.4186 875.1555 350.9387 876.4991 350.9387 C 877.8426 350.9387 878.9623 351.4186 879.858 352.3783 C 880.7537 353.274 881.2016 354.4576 881.2016 355.9291 C 881.2016 357.4006 880.7537 358.6163 879.858 359.5759 C 878.9623 360.5356 877.8427 361.0155 876.4991 361.0155 Z M 521.1554 377.2807 C 521.0788 376.1857 521.1184 374.9479 520.9306 373.607 C 520.7349 372.2686 520.5233 370.806 520.2932 369.227 C 520.0366 367.6506 519.8727 365.9368 519.4918 364.1462 C 519.0633 362.3635 518.6084 360.4698 518.1297 358.4702 C 516.0376 350.5434 512.7209 340.9451 506.6191 331.0876 C 500.5834 321.2485 492.1065 310.9281 480.4954 302.1576 C 478.9984 301.1288 477.4855 300.092 475.9568 299.0419 C 474.4254 297.9893 472.9125 296.8493 471.2197 295.9871 C 467.8951 294.1595 464.5678 292.0859 460.8702 290.6417 C 459.0532 289.843 457.2282 288.994 455.353 288.2164 C 453.4275 287.5763 451.4861 286.9336 449.5289 286.283 L 446.5613 285.307 C 445.5616 284.9922 444.4851 284.815 443.4377 284.5638 C 441.3112 284.1035 439.1688 283.6381 437.0132 283.1699 C 434.8312 282.6991 432.9375 282.6145 430.8639 282.3156 L 427.8037 281.94 L 426.267 281.7522 L 424.286 281.6967 C 419.8637 281.6649 415.3224 281.3528 410.7732 281.9294 C 401.6007 282.4611 392.3197 284.6986 383.2107 287.9757 C 374.0699 291.2871 365.4396 296.3309 357.2695 302.2819 C 355.3255 303.9006 353.3736 305.5246 351.4164 307.1512 C 349.4036 308.7355 347.7585 310.7059 345.907 312.4912 L 343.2013 315.2525 C 342.3153 316.1888 341.5456 317.2309 340.7124 318.2201 C 339.1202 320.2567 337.4275 322.243 335.9278 324.3695 C 329.8789 332.8834 325.2292 342.4659 321.8437 352.543 C 321.1323 355.1006 320.389 357.6582 319.7331 360.2423 L 319.2385 362.1836 L 318.8947 364.2731 L 318.2361 368.4653 L 317.6145 372.6654 C 317.4876 373.4086 317.4506 374.0063 317.4267 374.5723 L 317.3262 376.3285 L 317.1252 379.8436 L 317.0247 381.5998 L 316.9189 384.0278 C 317.2416 394.6789 318.5799 405.3695 321.8808 415.5074 C 325.2504 425.5872 329.9371 435.1485 335.9754 443.6624 C 337.483 445.7836 339.1519 447.7832 340.7733 449.7986 C 341.6064 450.7878 342.3734 451.8272 343.2595 452.7635 L 345.9626 455.5221 C 347.8114 457.3048 349.4565 459.2752 351.4666 460.8595 C 353.4106 462.51 355.3652 464.1286 357.3251 465.7156 C 365.4819 471.6719 374.1175 476.6946 383.2477 480.0086 C 384.3533 480.4953 385.488 480.9052 386.6544 481.2226 L 390.1059 482.2568 C 392.4123 482.8995 394.6446 483.6983 396.9959 484.0474 C 399.3102 484.4812 401.6112 484.9149 403.9017 485.346 C 406.1975 485.7507 408.6705 485.8406 411.0059 486.0787 C 415.9228 486.6738 419.8452 486.3061 424.0532 486.2823 L 425.9496 486.2453 L 427.5947 486.0575 L 430.8612 485.6767 C 433.0221 485.3751 435.1803 485.272 437.2777 484.8012 C 454.1733 481.6062 468.8684 474.5125 480.4822 465.869 C 492.0933 457.1065 500.5728 446.794 506.6138 436.9602 C 510.6813 430.3908 513.5147 423.9366 515.5709 418.0152 C 515.2027 418.2676 514.8238 418.4953 514.4344 418.6981 C 512.1889 424.2044 509.178 430.0831 504.9528 435.8705 C 498.4225 445.0933 489.2235 454.2976 477.3903 461.2484 C 465.5623 468.1674 451.1714 472.6267 435.9791 473.2641 C 434.0933 473.4228 432.1625 473.2165 430.2502 473.2165 L 427.3726 473.1451 L 426.0953 473.117 C 426.1026 473.1164 426.0989 473.1153 426.0792 473.1134 L 424.7277 472.9468 C 420.6783 472.4019 416.182 472.103 412.7621 471.0424 C 410.9292 470.5584 409.136 470.278 407.2766 469.6591 C 405.4199 469.0244 403.5553 468.3869 401.6827 467.7442 C 399.7889 467.2047 398.0274 466.2366 396.2156 465.4432 C 394.4409 464.5518 392.5392 463.97 390.8544 462.8723 C 389.1326 461.8884 387.4028 460.8992 385.6678 459.9074 C 383.946 458.905 382.3881 457.6116 380.7271 456.5087 L 378.2621 454.8054 L 375.9636 452.8587 C 374.4561 451.531 372.8585 450.3196 371.4171 448.9178 C 365.5665 443.3794 360.5888 436.9708 356.2539 430.1734 L 353.3127 424.8783 C 352.2495 423.1592 351.6464 421.1966 350.7789 419.3796 L 349.5252 416.6262 C 349.1338 415.6979 348.8667 414.7166 348.5281 413.7671 C 347.9145 411.8443 347.158 409.9664 346.6317 408.0171 C 344.5877 400.2905 343.4994 392.3391 343.3593 384.3162 L 343.3891 383.8215 L 343.4287 382.9434 L 343.7356 375.908 C 343.7541 375.2997 343.7832 374.7257 343.881 374.3158 L 344.3227 371.5598 L 344.7247 368.7985 L 344.9099 367.4152 L 345.2802 365.95 C 345.788 363.9954 346.2112 362.0223 346.6661 360.0518 C 347.1924 358.1052 347.9462 356.2273 348.5599 354.3045 C 348.8984 353.3549 349.1629 352.3737 349.5543 351.4453 L 350.8133 348.6946 C 351.7099 346.8934 352.2892 344.923 353.3577 343.2064 L 356.2962 337.914 C 360.6603 331.1484 365.5956 324.7107 371.4673 319.2013 C 372.9062 317.7995 374.5037 316.5882 376.0086 315.2604 L 378.3044 313.3138 L 380.7668 311.6105 C 382.4304 310.5155 383.9883 309.2248 385.7048 308.2223 C 387.4399 307.2305 389.167 306.2413 390.8862 305.2574 C 397.9533 301.7159 405.3115 298.5552 412.987 297.0609 C 416.7745 295.9844 420.6519 295.7411 424.487 295.1883 L 425.746 295.0216 C 425.8782 295.0111 425.2355 294.9978 425.6005 295.0031 L 427.1504 294.9714 L 430.2343 294.9079 C 432.2365 294.9106 434.4292 294.7228 436.233 294.8815 C 438.0659 295.0216 439.8856 295.1618 441.692 295.2994 C 442.6019 295.384 443.5091 295.384 444.4269 295.5374 L 447.1749 296.032 C 449.0131 296.36 450.8381 296.6826 452.6499 297.0053 C 454.4272 297.4629 456.1755 297.9945 457.9291 298.4812 C 464.946 300.4569 471.3758 303.5197 477.3665 306.839 C 489.1997 313.7846 498.4013 322.9782 504.9395 332.1957 C 511.6523 341.3841 515.3049 350.7999 517.688 358.5971 C 518.2302 360.5755 518.7433 362.4454 519.2273 364.2069 C 519.632 365.9843 519.8171 367.6929 520.0948 369.2613 C 520.3461 370.835 520.5762 372.2897 520.7904 373.6254 C 520.9967 374.9611 520.9729 376.1962 521.0655 377.2912 C 521.1032 377.9509 521.1383 378.5644 521.1708 379.1307 C 521.1971 379.2206 521.223 379.3113 521.2485 379.4026 C 521.2203 378.7594 521.1892 378.0515 521.1554 377.2807 Z M 518.1297 409.5829 C 518.6111 407.5834 519.066 405.6896 519.4945 403.9069 C 519.8753 402.1163 520.0393 400.3998 520.2959 398.8234 C 520.526 397.2418 520.7376 395.7792 520.9333 394.4408 C 521.0402 393.679 521.0734 392.9507 521.0963 392.2621 C 521.0585 392.2805 521.0198 392.2979 520.9803 392.3142 C 520.9484 392.9862 520.9047 393.6959 520.7904 394.4355 C 520.5789 395.7686 520.3461 397.2259 520.0948 398.7996 C 519.8198 400.3681 519.6346 402.074 519.23 403.854 C 518.7486 405.6155 518.2355 407.4855 517.6933 409.4639 C 517.4854 410.1439 517.2678 410.8364 517.0394 411.54 C 517.4169 410.99 517.7746 410.359 518.1127 409.6473 C 518.1184 409.6258 518.124 409.6043 518.1297 409.5829 Z" stroke-linecap="round"/>
</g>
</svg>